HIERARCHY
ROOT root
{
	OFFSET	0	13.1	24.9
	CHANNELS 6  Xposition Yposition Zposition Xrotation Yrotation Zrotation
	JOINT spine_1
	{
		OFFSET	0	9.99999	0
		CHANNELS 3  Xrotation Yrotation Zrotation
		JOINT spine_2
		{
			OFFSET	0	112	-10
			CHANNELS 3  Xrotation Yrotation Zrotation
			JOINT spine_3
			{
				OFFSET	0	206.5	19.3
				CHANNELS 3  Xrotation Yrotation Zrotation
				JOINT spine_4
				{
					OFFSET	0	110.4	14.6
					CHANNELS 3  Xrotation Yrotation Zrotation
					JOINT neck_1
					{
						OFFSET	0	71.8	-50.3
						CHANNELS 3  Xrotation Yrotation Zrotation
						JOINT neck_2
						{
							OFFSET	0	86.2	-25.8
							CHANNELS 3  Xrotation Yrotation Zrotation
							JOINT head_ee
							{
								OFFSET	0	179.8	-8.7
								CHANNELS 3  Xrotation Yrotation Zrotation
								End Site
								{
									OFFSET	1	0	0
								}
							}
						}
					}
					JOINT left_clavicle
					{
						OFFSET	-43.2	22.4	-70.8
						CHANNELS 3  Xrotation Yrotation Zrotation
						JOINT left_shoulder
						{
							OFFSET	-93.9	-5.79999	48.7
							CHANNELS 3  Xrotation Yrotation Zrotation
							JOINT left_elbow
							{
								OFFSET	-291.4	-30.8	15.2
								CHANNELS 3  Xrotation Yrotation Zrotation
								JOINT left_lowarm_twist
								{
									OFFSET	-110.7	-3.89999	13.6
									CHANNELS 3  Xrotation Yrotation Zrotation
									JOINT left_hand
									{
										OFFSET	-110.7	-3.89999	13.6
										CHANNELS 3  Xrotation Yrotation Zrotation
										JOINT left_ee
										{
											OFFSET	-80.8	-5.10001	12.1
											CHANNELS 3  Xrotation Yrotation Zrotation
											End Site
											{
												OFFSET	1	0	0
											}
										}
									}
								}
							}
						}
					}
					JOINT right_clavicle
					{
						OFFSET	43.2	22.4	-70.8
						CHANNELS 3  Xrotation Yrotation Zrotation
						JOINT right_shoulder
						{
							OFFSET	93.9	-5.79999	48.7
							CHANNELS 3  Xrotation Yrotation Zrotation
							JOINT right_elbow
							{
								OFFSET	291.4	-30.8	15.2
								CHANNELS 3  Xrotation Yrotation Zrotation
								JOINT right_lowarm_twist
								{
									OFFSET	110.7	-3.89999	13.6
									CHANNELS 3  Xrotation Yrotation Zrotation
									JOINT right_hand
									{
										OFFSET	110.7	-3.89999	13.6
										CHANNELS 3  Xrotation Yrotation Zrotation
										JOINT right_ee
										{
											OFFSET	80.8	-5.10001	12.1
											CHANNELS 3  Xrotation Yrotation Zrotation
											End Site
											{
												OFFSET	1	0	0
											}
										}
									}
								}
							}
						}
					}
				}
			}
		}
	}
	JOINT left_hip
	{
		OFFSET	-82.8	-127.5	0.300001
		CHANNELS 3  Xrotation Yrotation Zrotation
		JOINT left_knee
		{
			OFFSET	-28.2	-396.7	2.2
			CHANNELS 3  Xrotation Yrotation Zrotation
			JOINT left_ankle
			{
				OFFSET	-11.7	-411.3	35.4
				CHANNELS 3  Xrotation Yrotation Zrotation
				JOINT left_toes
				{
					OFFSET	0	-60	-88.6
					CHANNELS 3  Xrotation Yrotation Zrotation
					JOINT left_foot_ee
					{
						OFFSET	-22.5	-16.5	-42.2
						CHANNELS 3  Xrotation Yrotation Zrotation
						End Site
						{
							OFFSET	1	0	0
						}
					}
				}
			}
		}
	}
	JOINT right_hip
	{
		OFFSET	82.8	-127.5	0.300001
		CHANNELS 3  Xrotation Yrotation Zrotation
		JOINT right_knee
		{
			OFFSET	28.2	-396.7	2.2
			CHANNELS 3  Xrotation Yrotation Zrotation
			JOINT right_ankle
			{
				OFFSET	11.7	-411.3	35.4
				CHANNELS 3  Xrotation Yrotation Zrotation
				JOINT right_toes
				{
					OFFSET	0	-60	-88.6
					CHANNELS 3  Xrotation Yrotation Zrotation
					JOINT right_foot_ee
					{
						OFFSET	22.5	-16.5	-42.2
						CHANNELS 3  Xrotation Yrotation Zrotation
						End Site
						{
							OFFSET	1	0	0
						}
					}
				}
			}
		}
	}
}
MOTION
Frames: 5
Frame Time: 0.02
3177.02 653.055 -1669.29 -7.61036193595 49.9442735095 7.92427406036 0.971124 0.488469 2.45032 0.974403 0.331608 2.47642 0.989708 -0.153222 2.49381 0.981112 0.242427 2.48673 0.41213 17.3467 -3.58088 1.52675 33.8086 -2.42647 -0.0 0.0 -0.0 -2.05049 23.4353 -0.0963426 -35.2399 -12.8201 70.1117 0.95044 -25.2116 0.212554 -49.1632 -3.97404 4.63842 -1.00378 -3.61075 -8.30985 -0.0 0.0 -0.0 12.3863 22.7576 -24.5991 11.0617 46.3449 -57.2132 2.14202 46.6919 -0.924623 -13.9412 0.694197 -1.63742 -1.5572 18.4596 18.4879 0.0 0.0 0.0 29.1945 5.64311 -16.5446 4.45039 -0.208682 -0.650757 -10.8162 9.82728 1.61455 4.64899 -0.0 -0.0 -0.0 0.0 -0.0 -12.2744 16.7573 4.60552 -12.9171 -0.312777 -1.95345 39.1192 14.5111 5.07175 -22.4265 0.0 0.0 0.0 0.0 0.0 
3128.56390246 653.845 -1671.04017462 -8.55184466792 48.845377965 8.84851904349 1.19877 0.392957 2.17959 1.20138 0.253502 2.20016 1.21169 -0.16794 2.20834 1.20493 0.182846 2.20715 0.953387 16.6497 -2.77912 1.96318 31.8221 -1.71512 -0.0 0.0 -0.0 -1.98575 23.4886 0.00139136 -34.7478 -12.8136 69.7195 0.970238 -25.6698 0.221059 -49.8445 -4.05357 4.67474 -0.940225 -4.15436 -8.11602 -0.0 0.0 -0.0 11.8509 22.8509 -23.3615 7.26026 45.1774 -57.2489 2.17768 47.1636 -0.950674 -14.4819 0.729021 -1.69723 -1.54802 18.4631 18.4252 0.0 0.0 0.0 29.6568 6.31101 -15.842 -1.12315 0.0446143 0.166586 -12.9148 9.31517 1.93219 5.13918 -0.0 -0.0 -0.0 0.0 -0.0 -12.0529 16.1662 4.16978 -16.6512 -0.320478 -2.52621 36.7177 13.4239 4.81699 -20.8892 0.0 0.0 0.0 0.0 0.0 
3101.94582958 661.927 -1674.30009339 -7.57950823586 48.0657345772 8.67332579182 1.25339 0.384057 2.1216 1.25586 0.248307 2.14173 1.26565 -0.159943 2.15013 1.25924 0.181557 2.14842 1.03599 16.2238 -2.29622 1.95828 30.656 -1.21589 -0.0 0.0 -0.0 -1.93511 23.5538 0.0815924 -34.5034 -12.9766 69.8463 0.973205 -25.7381 0.222346 -50.1546 -4.08992 4.69097 -0.912474 -4.39011 -8.03039 -0.0 0.0 -0.0 11.6056 22.7809 -22.8074 4.10267 44.256 -57.3117 2.15109 46.8127 -0.931232 -14.737 0.745651 -1.72533 -1.53753 18.4466 18.3453 0.0 0.0 0.0 29.7713 6.53672 -15.6354 -3.50628 0.128401 0.522702 -13.4394 8.85637 2.01165 5.60014 -0.0 -0.0 -0.0 0.0 -0.0 -11.9613 15.896 4.0095 -18.4934 -0.310525 -2.80869 34.8577 12.3633 4.60729 -20.0355 0.0 0.0 0.0 0.0 0.0 
3080.55793897 670.54 -1673.65526999 -7.18101582293 47.6907559975 8.42482960079 1.31966 0.284763 2.07344 1.32204 0.152277 2.08735 1.32796 -0.241794 2.07889 1.32194 0.0894874 2.09098 1.55185 15.8936 -2.18219 2.47305 29.8829 -1.23154 -0.0 0.0 -0.0 -1.76382 22.9754 0.222534 -33.1789 -13.3445 69.6191 0.994295 -26.2218 0.231585 -50.3933 -4.11795 4.70332 -0.888144 -4.53244 -7.92708 -0.0 0.0 -0.0 11.3987 22.6815 -22.345 1.34409 43.4574 -57.3534 2.11626 46.346 -0.905935 -15.0029 0.763113 -1.75454 -1.52543 18.2128 18.1656 0.0 0.0 0.0 28.991 7.06475 -15.2614 -5.63192 0.190572 0.842978 -13.7726 8.38296 2.06223 6.12028 -0.0 -0.0 -0.0 0.0 -0.0 -11.6125 15.6733 4.67566 -18.3491 -0.311633 -2.78657 33.5804 11.6019 4.45981 -19.5592 0.0 0.0 0.0 0.0 0.0 
3026.86433932 679.973 -1672.29407494 -6.91517362682 47.4329448679 8.18139763785 1.47621 0.228394 2.00511 1.47844 0.100367 2.01557 1.4822 -0.273965 1.9994 1.47662 0.0451735 2.01757 2.1059 15.5977 -1.79318 3.00319 28.9364 -0.934315 -0.0 0.0 -0.0 -1.43563 22.6056 0.620603 -31.1324 -14.047 68.727 1.02449 -26.9073 0.245088 -50.4828 -4.12847 4.70792 -0.839664 -4.71872 -7.67866 -0.0 0.0 -0.0 10.8065 22.6384 -21.006 -4.81568 42.108 -57.3465 1.99971 44.7244 -0.822747 -15.114 0.770451 -1.76673 -1.45141 17.1221 17.2024 0.0 0.0 0.0 27.3065 7.97014 -13.3831 -10.514 0.288094 1.58559 -13.3834 7.97465 2.00332 6.73942 -0.0 -0.0 -0.0 0.0 -0.0 -11.3544 16.6089 5.25644 -21.2405 -0.278833 -3.22895 31.7055 11.4948 4.26242 -18.8991 0.0 0.0 0.0 0.0 0.0 
